<svg width="256" height="256" viewBox="0 0 256 256" fill="none" xmlns="http://www.w3.org/2000/svg">
<rect width="256" height="256" fill="black"/>
<path d="M106.014 177.812C98.849 171.348 96.7585 157.778 99.7431 147.942C104.915 154.141 112.086 156.11 119.511 157.216C130.973 158.926 142.228 158.285 152.874 153.12C154.094 152.528 155.218 151.736 156.547 150.945C157.55 153.802 157.81 156.684 157.459 159.627C156.613 166.786 153 172.314 147.261 176.507C144.965 178.181 142.536 179.679 140.162 181.262C132.882 186.119 130.912 191.817 133.649 200.106L133.915 201C130.431 199.505 127.472 197.006 125.414 193.822C123.273 190.566 122.131 186.754 122.127 182.857C122.103 180.924 122.103 178.978 121.838 177.069C121.197 172.423 118.986 170.345 114.823 170.224C110.552 170.103 107.168 172.707 106.274 176.809C106.202 177.129 106.105 177.437 106.002 177.806H106.014V177.812ZM70 150.957C70 150.957 89.575 141.441 109.21 141.441L124.019 95.736C124.574 93.5248 126.194 92.0265 128.018 92.0265C129.843 92.0265 131.462 93.5248 132.018 95.736L146.82 141.441C170.08 141.441 186.036 150.957 186.036 150.957L152.716 60.3923C151.762 57.7219 150.149 56 147.974 56H108.062C105.887 56 104.347 57.7219 103.326 60.3923L70 150.957Z" fill="white"/>
</svg>
