<svg width="256" height="256" viewBox="0 0 256 256" fill="none" xmlns="http://www.w3.org/2000/svg">
<rect width="256" height="256" fill="#0000FF"/>
<g clip-path="url(#clip0_3151_142)">
<path d="M142.669 92.6275C129.692 92.6275 116.859 98.21 107.099 109.23V55H87.7588V146.314C87.7588 175.966 111.726 200 141.296 200C170.866 200 194.833 175.966 194.833 146.314C194.833 116.661 172.203 92.6275 142.669 92.6275ZM141.26 179.301C123.077 179.301 108.364 164.511 108.364 146.314C108.364 128.08 123.113 113.326 141.26 113.326C159.443 113.326 174.155 128.116 174.155 146.314C174.155 164.511 159.443 179.301 141.26 179.301Z" fill="white"/>
<path d="M73.6606 173.429C66.3584 173.429 60.4299 179.374 60.4299 186.696C60.4299 194.019 66.3584 199.964 73.6606 199.964C80.9627 199.964 86.8912 194.019 86.8912 186.696C86.8912 179.374 80.9627 173.429 73.6606 173.429Z" fill="white"/>
</g>
<defs>
<clipPath id="clip0_3151_142">
<rect width="134.367" height="145" fill="white" transform="translate(60.4299 55)"/>
</clipPath>
</defs>
</svg>
