<svg width="256" height="256" viewBox="0 0 256 256" fill="none" xmlns="http://www.w3.org/2000/svg">
<rect width="256" height="256" fill="#44B78B"/>
<path d="M122.632 56H146.422V165.014C136.267 167.098 125.931 168.173 115.564 168.224C86.5119 168.194 71.3918 155.216 71.3918 130.292C71.3918 106.292 87.4299 90.692 112.288 90.692C115.774 90.624 119.254 91.0277 122.632 91.892V56ZM122.632 110.852C120.046 109.999 117.333 109.593 114.61 109.652C102.61 109.652 95.6319 116.99 95.6319 129.848C95.6319 142.37 102.274 149.282 114.46 149.282C117.195 149.281 119.926 149.081 122.632 148.682V110.882V110.852Z" fill="white"/>
<path d="M184.222 92.3538V146.954C184.222 165.752 182.812 174.788 178.684 182.582C174.471 190.507 167.582 196.679 159.244 200L137.176 189.602C145.193 186.856 151.908 181.236 156.022 173.828C159.418 167.102 160.492 159.308 160.492 138.806V92.3538H184.222Z" fill="white"/>
<path d="M184.252 56.1199H160.468V80.2879H184.252V56.1199Z" fill="white"/>
</svg>
