<svg width="256" height="256" viewBox="0 0 256 256" fill="none" xmlns="http://www.w3.org/2000/svg">
<rect width="256" height="256" fill="#041937"/>
<g clip-path="url(#clip0_3151_250)">
<path d="M140.609 194.062L115.44 169.519L169.494 114.32L195.553 139.86L140.609 194.062Z" fill="#8AB4F8"/>
<path d="M140.716 85.551L115.638 59.9453L60.8016 114.263C53.7328 121.331 53.7328 132.791 60.8016 139.868L114.814 194.235L140.354 170.343L99.2018 127.065L140.716 85.551Z" fill="#4285F4"/>
<path d="M195.19 114.683L140.815 60.3077C133.738 53.2308 122.262 53.2308 115.185 60.3077C108.108 67.3847 108.108 78.8612 115.185 85.9381L169.56 140.313C176.637 147.39 188.113 147.39 195.19 140.313C202.267 133.236 202.267 121.76 195.19 114.683Z" fill="#8AB4F8"/>
<path d="M127.584 200.002C137.367 200.002 145.297 192.072 145.297 182.289C145.297 172.506 137.367 164.576 127.584 164.576C117.801 164.576 109.871 172.506 109.871 182.289C109.871 192.072 117.801 200.002 127.584 200.002Z" fill="#246FDB"/>
</g>
<defs>
<clipPath id="clip0_3151_250">
<rect width="145" height="145" fill="white" transform="translate(55.5 55)"/>
</clipPath>
</defs>
</svg>
