<svg width="256" height="256" viewBox="0 0 256 256" fill="none" xmlns="http://www.w3.org/2000/svg">
<g clip-path="url(#clip0_3151_175)">
<mask id="mask0_3151_175" style="mask-type:luminance" maskUnits="userSpaceOnUse" x="0" y="0" width="256" height="256">
<path d="M256 0H0V256H256V0Z" fill="white"/>
</mask>
<g mask="url(#mask0_3151_175)">
<path d="M0 5.12C0 2.2923 2.2923 0 5.12 0H250.88C253.708 0 256 2.2923 256 5.12V250.88C256 253.708 253.708 256 250.88 256H5.12C2.2923 256 0 253.708 0 250.88V5.12Z" fill="#0A0A0A"/>
<path d="M128.006 127.994L56.3203 56.3203H199.681L128.006 127.994Z" fill="url(#paint0_linear_3151_175)"/>
<path d="M199.681 199.654L56.3203 199.68L128.006 127.993L199.681 199.654Z" fill="url(#paint1_linear_3151_175)"/>
<path d="M128.006 127.994L56.3203 199.681V56.3203L128.006 127.994Z" fill="url(#paint2_linear_3151_175)"/>
</g>
</g>
<defs>
<linearGradient id="paint0_linear_3151_175" x1="128.62" y1="128.619" x2="128.62" y2="57.0937" gradientUnits="userSpaceOnUse">
<stop stop-color="white"/>
<stop offset="1" stop-color="white" stop-opacity="0.8"/>
</linearGradient>
<linearGradient id="paint1_linear_3151_175" x1="127.994" y1="127.993" x2="57.0944" y2="198.892" gradientUnits="userSpaceOnUse">
<stop stop-color="white" stop-opacity="0.3"/>
<stop offset="1" stop-color="white" stop-opacity="0.5"/>
</linearGradient>
<linearGradient id="paint2_linear_3151_175" x1="57.0945" y1="128.619" x2="128.62" y2="128.619" gradientUnits="userSpaceOnUse">
<stop stop-color="white" stop-opacity="0.8"/>
<stop offset="1" stop-color="white" stop-opacity="0.5"/>
</linearGradient>
<clipPath id="clip0_3151_175">
<rect width="256" height="256" fill="white"/>
</clipPath>
</defs>
</svg>
