<svg width="256" height="256" viewBox="0 0 256 256" fill="none" xmlns="http://www.w3.org/2000/svg">
<rect width="256" height="256" fill="#FF2D20"/>
<path d="M198.346 87.8028C198.399 87.9961 198.426 88.1954 198.426 88.3957V119.52C198.426 120.333 197.991 121.084 197.286 121.488L171.163 136.528V166.339C171.163 167.15 170.732 167.899 170.028 168.307L115.499 199.698C115.374 199.769 115.238 199.814 115.102 199.862C115.051 199.879 115.002 199.911 114.949 199.925C114.567 200.025 114.167 200.025 113.786 199.925C113.723 199.908 113.666 199.874 113.607 199.851C113.482 199.806 113.352 199.766 113.232 199.698L58.7146 168.307C58.0096 167.902 57.5742 167.152 57.5742 166.339V72.9671C57.5742 72.7628 57.6026 72.5642 57.6536 72.3714C57.6707 72.3061 57.7104 72.2465 57.7331 72.1813C57.7756 72.0622 57.8153 71.9402 57.8777 71.8296C57.9203 71.7558 57.9827 71.6962 58.0338 71.6282C58.099 71.5374 58.1586 71.4438 58.2352 71.3643C58.3004 71.2991 58.3855 71.2509 58.4593 71.1941C58.5415 71.1261 58.6153 71.0523 58.7089 70.9984H58.7117L85.972 55.3032C86.6745 54.8989 87.5389 54.8989 88.2414 55.3032L115.502 70.9984H115.507C115.598 71.0551 115.675 71.1261 115.757 71.1913C115.831 71.248 115.913 71.2991 115.978 71.3615C116.058 71.4438 116.114 71.5374 116.183 71.6282C116.231 71.6962 116.296 71.7558 116.336 71.8296C116.401 71.943 116.438 72.0622 116.483 72.1813C116.506 72.2465 116.546 72.3061 116.563 72.3742C116.615 72.5675 116.642 72.7668 116.642 72.9671V131.286L139.358 118.206V88.3928C139.358 88.1943 139.386 87.9929 139.437 87.8028C139.457 87.7347 139.494 87.6751 139.517 87.6099C139.562 87.4908 139.602 87.3688 139.664 87.2582C139.707 87.1844 139.769 87.1248 139.818 87.0568C139.886 86.966 139.942 86.8724 140.022 86.7929C140.087 86.7277 140.169 86.6795 140.243 86.6227C140.328 86.5547 140.402 86.4809 140.493 86.427H140.496L167.759 70.7318C168.461 70.327 169.326 70.327 170.028 70.7318L197.288 86.427C197.385 86.4838 197.459 86.5547 197.544 86.6199C197.615 86.6766 197.697 86.7277 197.762 86.7901C197.842 86.8724 197.898 86.966 197.966 87.0568C198.017 87.1248 198.08 87.1844 198.12 87.2582C198.185 87.3688 198.222 87.4908 198.267 87.6099C198.293 87.6751 198.329 87.7347 198.346 87.8028ZM193.882 118.206V92.3244L184.342 97.8162L171.163 105.404V131.286L193.884 118.206H193.882ZM166.621 165.025V139.127L153.658 146.53L116.639 167.658V193.8L166.621 165.025ZM62.1186 76.8958V165.025L112.095 193.798V167.661L85.9862 152.884L85.9777 152.879L85.9664 152.873C85.8784 152.822 85.8047 152.748 85.7224 152.686C85.6515 152.629 85.5692 152.584 85.5068 152.521L85.5012 152.513C85.4274 152.442 85.3764 152.354 85.3139 152.274C85.2572 152.198 85.1891 152.133 85.1437 152.053L85.1409 152.045C85.0898 151.96 85.0586 151.857 85.0218 151.761C84.9849 151.676 84.9367 151.597 84.914 151.506V151.503C84.8856 151.395 84.8799 151.282 84.8686 151.171C84.8572 151.086 84.8345 151.001 84.8345 150.916V150.91V89.9757L71.6582 82.3848L62.1186 76.8987V76.8958ZM87.1096 59.8929L64.3964 72.9671L87.1039 86.0412L109.814 72.9642L87.1039 59.8929H87.1096ZM98.9214 141.487L112.098 133.901V76.8958L102.558 82.3876L89.3789 89.9757V146.981L98.9214 141.487ZM168.893 75.3215L146.183 88.3957L168.893 101.47L191.601 88.3928L168.893 75.3215ZM166.621 105.404L153.442 97.8162L143.902 92.3244V118.206L157.079 125.791L166.621 131.286V105.404ZM114.364 163.729L147.675 144.712L164.326 135.209L141.633 122.143L115.505 137.186L91.6908 150.896L114.364 163.729Z" fill="white"/>
</svg>
