<svg width="256" height="256" viewBox="0 0 256 256" fill="none" xmlns="http://www.w3.org/2000/svg">
<rect width="256" height="256" fill="black"/>
<path d="M123.252 55.039C122.94 55.0674 121.948 55.1666 121.055 55.2374C100.46 57.0939 81.1691 68.2047 68.9511 85.2819C62.1476 94.7771 57.7962 105.548 56.152 116.956C55.5709 120.938 55.5 122.115 55.5 127.514C55.5 132.914 55.5709 134.09 56.152 138.072C60.0924 165.297 79.4682 188.17 105.747 196.645C110.453 198.161 115.413 199.196 121.055 199.819C123.252 200.06 132.748 200.06 134.945 199.819C144.683 198.742 152.932 196.333 161.068 192.181C162.315 191.543 162.556 191.373 162.386 191.231C162.273 191.146 156.957 184.018 150.579 175.401L138.985 159.741L124.456 138.242C116.462 126.423 109.886 116.758 109.829 116.758C109.772 116.744 109.716 126.295 109.687 137.959C109.645 158.381 109.63 159.203 109.375 159.684C109.007 160.379 108.723 160.662 108.128 160.974C107.674 161.201 107.278 161.243 105.137 161.243H102.685L102.033 160.832C101.608 160.563 101.296 160.209 101.084 159.798L100.786 159.16L100.814 130.745L100.857 102.317L101.296 101.764C101.523 101.466 102.005 101.084 102.345 100.899C102.926 100.616 103.153 100.588 105.605 100.588C108.497 100.588 108.978 100.701 109.73 101.523C109.942 101.75 117.809 113.597 127.22 127.868C136.632 142.14 149.502 161.626 155.824 171.192L167.304 188.581L167.886 188.198C173.031 184.854 178.474 180.092 182.783 175.132C191.953 164.602 197.864 151.762 199.848 138.072C200.429 134.09 200.5 132.914 200.5 127.514C200.5 122.115 200.429 120.938 199.848 116.956C195.908 89.7319 176.532 66.8584 150.253 58.3836C145.618 56.8814 140.686 55.8468 135.158 55.2233C133.797 55.0815 124.428 54.9256 123.252 55.039ZM152.932 98.8869C153.612 99.2271 154.165 99.879 154.364 100.559C154.477 100.928 154.505 108.807 154.477 126.565L154.435 152.046L149.941 145.158L145.434 138.271V119.748C145.434 107.773 145.491 101.041 145.576 100.715C145.803 99.9215 146.299 99.2979 146.979 98.9294C147.56 98.6318 147.773 98.6035 149.998 98.6035C152.096 98.6035 152.464 98.6318 152.932 98.8869Z" fill="white"/>
</svg>
