<svg width="256" height="256" viewBox="0 0 256 256" fill="none" xmlns="http://www.w3.org/2000/svg">
<rect width="256" height="256" fill="#FDDD35"/>
<g clip-path="url(#clip0_3151_324)">
<path d="M70 109.072V103.859C76.1812 103.859 82.3623 101.49 87.1171 96.7516C91.3963 92.4869 93.7737 86.3268 93.7737 80.1667H98.5285C98.5285 86.3268 100.906 92.4869 105.661 96.7516C109.94 101.016 116.121 103.859 122.778 103.859V109.072C116.596 109.072 110.415 111.441 105.661 116.18C101.381 120.444 98.5285 126.131 98.5285 132.765H93.7737C93.7737 126.605 91.3963 120.444 86.6416 116.18C82.3623 111.441 76.1812 109.072 70 109.072ZM93.7737 71.1634H135.14C155.11 71.1634 169.85 85.3791 169.85 106.229C169.85 127.078 155.585 141.294 135.14 141.294H93.7737V201H110.891V156.458H134.664C163.668 156.458 186.491 133.712 186.491 106.229C186.967 78.7451 164.144 56 135.14 56H93.7737V71.1634Z" fill="#0E1414"/>
</g>
<defs>
<clipPath id="clip0_3151_324">
<rect width="116.967" height="145" fill="white" transform="translate(70 56)"/>
</clipPath>
</defs>
</svg>
