<svg width="256" height="256" viewBox="0 0 256 256" fill="none" xmlns="http://www.w3.org/2000/svg">
<rect width="256" height="256" fill="#CBB0EB"/>
<path d="M74.1907 200C72.4285 200 71 198.571 71 196.809V60.5337C71 58.7716 72.4285 57.343 74.1907 57.343H100.613C102.375 57.343 103.803 58.7716 103.803 60.5337V69.2715C111.472 60.1122 122.548 55 136.181 55C164.937 55 185.386 78.2179 185.386 111.234C185.386 144.463 164.937 167.681 136.181 167.681C122.548 167.681 111.472 162.569 103.803 153.197V196.809C103.803 198.571 102.375 200 100.613 200H74.1907ZM102.099 111.234C102.099 128.487 112.537 140.629 127.234 140.629C141.719 140.629 152.369 128.275 152.369 111.234C152.369 94.1935 141.719 82.052 127.234 82.052C112.537 82.052 102.099 94.1935 102.099 111.234Z" fill="white"/>
</svg>
