<svg width="256" height="256" viewBox="0 0 256 256" fill="none" xmlns="http://www.w3.org/2000/svg">
<rect width="256" height="256" fill="#2663EB"/>
<path fill-rule="evenodd" clip-rule="evenodd" d="M87.7989 187.532C120.954 209.975 166.025 201.292 188.468 168.137C210.911 134.982 202.228 89.9112 169.073 67.468C135.918 45.0248 90.8469 53.7083 68.4038 86.8631C45.9606 120.018 54.6441 165.089 87.7989 187.532ZM97.4145 188.125C127.743 203.641 166.216 189.076 183.347 155.593C200.476 122.11 189.777 82.3881 159.448 66.8717C129.121 51.3553 90.6474 65.92 73.5171 99.403C56.3868 132.885 67.0861 172.608 97.4145 188.125Z" fill="white"/>
<path fill-rule="evenodd" clip-rule="evenodd" d="M106.057 196.044C133.433 204.955 165.64 181.415 177.991 143.468C190.342 105.52 178.161 67.5333 150.784 58.6227C123.407 49.7122 91.2015 73.2515 78.8503 111.199C66.4991 149.147 78.6799 187.134 106.057 196.044ZM114.431 193.16C137.601 198.102 162.653 172.709 170.389 136.445C178.123 100.181 165.611 66.7769 142.442 61.835C119.273 56.8932 94.2201 82.2852 86.4852 118.55C78.7504 154.814 91.2623 188.218 114.431 193.16Z" fill="white"/>
<path fill-rule="evenodd" clip-rule="evenodd" d="M120.785 199.139C139.103 201.095 157.384 170.541 161.618 130.895C165.85 91.2498 154.433 57.5249 136.115 55.5689C117.797 53.6129 99.5155 84.1666 95.2821 123.813C91.0489 163.458 102.467 197.183 120.785 199.139ZM129.357 187.072C142.613 186.863 152.939 160.026 152.419 127.131C151.9 94.2351 140.731 67.7378 127.475 67.9472C114.218 68.1567 103.892 94.9935 104.412 127.89C104.932 160.785 116.1 187.282 129.357 187.072Z" fill="white"/>
</svg>
