<svg width="256" height="256" viewBox="0 0 256 256" fill="none" xmlns="http://www.w3.org/2000/svg">
<rect width="256" height="256" fill="black"/>
<path d="M90.9396 144.717C100.453 144.717 108.165 137.005 108.165 127.492C108.165 117.979 100.453 110.267 90.9396 110.267C81.4263 110.267 73.7143 117.979 73.7143 127.492C73.7143 137.005 81.4263 144.717 90.9396 144.717ZM50.2253 179.168C59.7385 179.168 67.4506 171.456 67.4506 161.943C67.4506 152.429 59.7385 144.717 50.2253 144.717C40.712 144.717 33 152.429 33 161.943C33 171.456 40.712 179.168 50.2253 179.168ZM205.775 179.168C215.288 179.168 223 171.456 223 161.943C223 152.429 215.288 144.717 205.775 144.717C196.261 144.717 188.549 152.429 188.549 161.943C188.549 171.456 196.261 179.168 205.775 179.168Z" fill="white"/>
<path d="M149.201 128.218C148.65 122.463 148.37 117.673 143.961 114.307C138.378 110.043 132.053 112.81 124.263 109.998C116.608 108.146 110.93 101.349 110.93 93.248C110.93 83.7222 118.78 76 128.465 76C135.638 76 141.804 80.236 144.521 86.3035C148.678 94.2 145.976 102.236 151.199 106.284C157.384 111.077 165.723 107.567 175.027 112.109C178.016 113.482 180.547 115.661 182.33 118.362C184.113 121.062 185.148 124.284 185.148 127.744C185.148 135.845 179.47 142.642 171.815 144.494C164.025 147.306 157.7 144.539 152.117 148.803C145.838 153.597 149.2 161.618 144.083 170.09C141.178 175.67 135.275 179.488 128.465 179.488C118.78 179.488 110.93 171.766 110.93 162.24C110.93 155.32 115.072 149.352 121.052 146.605C130.356 142.063 138.694 145.573 144.879 140.78C148.447 138.015 149.201 133.75 149.201 128.218Z" fill="#D0021B"/>
</svg>
