<svg width="256" height="256" viewBox="0 0 256 256" fill="none" xmlns="http://www.w3.org/2000/svg">
<rect width="256" height="256" fill="#FAF7F2"/>
<path d="M127.967 93.6274C127.967 93.7095 127.967 93.7481 127.967 93.8013C127.996 96.2257 129.024 98.713 130.719 100.447C130.758 100.485 130.763 100.49 130.768 100.495C130.835 100.563 130.869 100.597 130.942 100.664C132.646 102.301 135.071 103.306 137.437 103.354C137.534 103.354 137.621 103.354 137.785 103.354H160.808C166.217 103.354 168.922 103.354 170.989 104.407C172.805 105.334 174.283 106.812 175.21 108.628C176.263 110.695 176.263 113.4 176.263 118.809V136.196C176.263 141.605 176.263 144.31 175.21 146.377C174.283 148.193 172.805 149.67 170.989 150.598C168.922 151.651 166.217 151.651 160.808 151.651H137.486C135.003 151.655 132.453 152.713 130.695 154.461C130.686 154.471 130.821 154.336 130.768 154.389C130.758 154.399 130.753 154.399 130.715 154.442C129.019 156.176 127.991 158.658 127.962 161.083C127.962 161.136 127.962 161.179 127.962 161.257V184.545C127.962 189.954 127.962 192.659 126.909 194.726C125.982 196.542 124.504 198.02 122.688 198.947C120.621 200 117.916 200 112.507 200H95.1202C89.711 200 87.0064 200 84.9394 198.947C83.1234 198.02 81.6456 196.542 80.7183 194.726C79.6654 192.659 79.6654 189.954 79.6654 184.545V167.159C79.6654 161.749 79.6654 159.045 80.7183 156.978C81.6456 155.162 83.1234 153.684 84.9394 152.757C87.0064 151.704 89.711 151.704 95.1202 151.704H117.771C118.114 151.704 118.283 151.704 118.462 151.699C120.717 151.617 123.016 150.665 124.673 149.125C124.803 149.004 124.9 148.907 125.093 148.714C125.165 148.642 125.199 148.608 125.267 148.54C126.914 146.826 127.913 144.411 127.962 142.035C127.962 141.938 127.962 141.856 127.962 141.692V113.187C127.962 113.018 127.962 112.936 127.962 112.84C127.913 110.463 126.914 108.049 125.267 106.339C125.199 106.271 125.165 106.233 125.093 106.16C125.02 106.088 124.987 106.054 124.914 105.986C123.2 104.34 120.785 103.34 118.409 103.291C118.312 103.291 118.23 103.291 118.066 103.291H95.1202C89.711 103.291 87.0064 103.291 84.9394 102.239C83.1234 101.311 81.6456 99.8335 80.7183 98.0175C79.6654 95.9504 79.6654 93.2458 79.6654 87.8367V70.45C79.6702 65.0456 79.6702 62.341 80.7231 60.274C81.6504 58.458 83.1283 56.9801 84.9442 56.0529C87.0113 55 89.7159 55 95.1251 55H112.512C117.921 55 120.626 55 122.693 56.0529C124.509 56.9801 125.986 58.458 126.914 60.274C127.967 62.341 127.967 65.0456 127.967 70.4548V93.6274Z" fill="#FF3C00"/>
</svg>
