<svg width="256" height="256" viewBox="0 0 256 256" fill="none" xmlns="http://www.w3.org/2000/svg">
<rect width="256" height="256" fill="#D8F14C"/>
<path d="M204.915 59.8254L200.712 74.886C200.49 75.6834 199.65 76.144 198.851 75.9076L128.364 55.0617C127.895 54.923 127.387 55.0213 127.006 55.3247L57.1982 110.813C56.9944 110.975 56.7512 111.082 56.493 111.121L14.9578 117.466C14.1888 117.583 13.6404 118.267 13.6991 119.036L13.8796 121.402C13.9372 122.158 14.5625 122.748 15.3267 122.767L63.5716 124.003L64.1218 124.019L99.7703 105.144C100.269 104.88 100.876 104.918 101.337 105.244L126.593 123.089C126.988 123.368 127.222 123.822 127.217 124.304L127.004 147.982C127.001 148.289 127.095 148.589 127.272 148.84L162.798 199.368C163.077 199.764 163.533 200 164.02 200H175.267C176.389 200 177.108 198.817 176.584 197.834L151.263 150.287C151.015 149.822 151.036 149.261 151.317 148.816L164.519 127.852C164.663 127.624 164.867 127.439 165.109 127.317L212.309 103.576C212.788 103.335 213.362 103.368 213.809 103.664L227.297 112.575C227.542 112.737 227.829 112.823 228.124 112.823H240.378C241.565 112.823 242.275 111.515 241.622 110.533L207.594 59.4059C206.89 58.3473 205.256 58.6032 204.915 59.8254Z" fill="black"/>
</svg>
