<svg width="256" height="256" viewBox="0 0 256 256" fill="none" xmlns="http://www.w3.org/2000/svg">
<rect width="256" height="256" fill="black"/>
<path d="M175.676 84.232C175.576 83.5033 174.937 83.1 174.41 83.0555C173.883 83.0116 162.738 82.1855 162.738 82.1855C162.738 82.1855 154.998 74.5012 154.149 73.6507C153.299 72.8006 151.639 73.0592 150.994 73.2489C150.899 73.2768 149.303 73.7695 146.663 74.5866C144.077 67.1464 139.514 60.3091 131.486 60.3091C131.264 60.3091 131.036 60.3181 130.808 60.3311C128.525 57.3117 125.697 56 123.254 56C104.554 56 95.6197 79.3774 92.8185 91.257C85.552 93.5086 80.3899 95.1093 79.7305 95.3165C75.6745 96.5888 75.5462 96.7166 75.0136 100.539C74.6128 103.432 64 185.506 64 185.506L146.697 201L191.505 191.307C191.505 191.307 175.775 84.9608 175.676 84.232ZM142.092 76.0002L135.094 78.1659C135.097 77.6728 135.099 77.1876 135.099 76.657C135.099 72.033 134.458 68.3099 133.428 65.3584C137.564 65.8775 140.319 70.584 142.092 76.0002ZM128.297 66.2754C129.447 69.1569 130.194 73.2923 130.194 78.8727C130.194 79.1582 130.192 79.4193 130.189 79.6833C125.639 81.0929 120.694 82.6233 115.738 84.1586C118.52 73.4191 123.736 68.232 128.297 66.2754ZM122.741 61.0159C123.548 61.0159 124.361 61.2899 125.139 61.8255C119.146 64.6457 112.722 71.7485 110.009 85.9326L98.5856 89.4705C101.763 78.6516 109.309 61.0159 122.741 61.0159Z" fill="#95BF46"/>
<path d="M174.41 83.0555C173.883 83.0115 162.739 82.1855 162.739 82.1855C162.739 82.1855 154.998 74.5011 154.149 73.6506C153.831 73.3342 153.402 73.1719 152.954 73.1021L146.701 200.999L191.505 191.307C191.505 191.307 175.775 84.9607 175.676 84.2319C175.576 83.5032 174.938 83.0999 174.41 83.0555Z" fill="#5E8E3E"/>
<path d="M131.486 107.814L125.961 124.249C125.961 124.249 121.12 121.665 115.187 121.665C106.488 121.665 106.05 127.124 106.05 128.5C106.05 136.006 125.616 138.882 125.616 156.464C125.616 170.297 116.843 179.204 105.013 179.204C90.8175 179.204 83.558 170.369 83.558 170.369L87.359 157.811C87.359 157.811 94.8211 164.217 101.118 164.217C105.232 164.217 106.906 160.978 106.906 158.611C106.906 148.82 90.8535 148.383 90.8535 132.294C90.8535 118.753 100.573 105.649 120.192 105.649C127.752 105.649 131.486 107.814 131.486 107.814Z" fill="white"/>
</svg>
