<svg width="256" height="256" viewBox="0 0 256 256" fill="none" xmlns="http://www.w3.org/2000/svg">
<rect width="256" height="256" fill="black"/>
<path d="M209.067 103.583C195.381 89.9045 173.173 89.9045 159.213 103.583L103.381 159.407C99.9634 162.825 99.9634 168.521 103.381 171.939C106.799 175.349 112.495 175.349 115.913 171.939L171.745 116.108C178.573 109.28 189.684 109.28 196.535 116.108C203.371 122.943 203.371 134.062 196.535 140.898L141.554 195.879C148.39 202.707 159.494 202.707 166.337 195.879L208.786 153.43C222.731 139.47 222.731 117.255 209.067 103.583ZM190.269 122.093C186.844 118.675 181.147 118.675 177.737 122.093L121.883 178.213C115.047 185.041 103.951 185.041 97.1076 178.213C93.6898 174.795 87.9935 174.795 84.5757 178.213C81.1579 181.631 81.1579 187.327 84.5757 190.737C98.2545 204.416 120.47 204.416 134.43 190.737L190.262 134.913C193.672 131.214 193.672 125.503 190.269 122.093ZM171.745 66.2686C158.066 52.5898 135.85 52.5898 121.89 66.2686L66.0589 122.1C62.6411 125.51 62.6411 131.207 66.0589 134.625C69.4767 138.042 75.173 138.042 78.5908 134.625L134.757 78.7929C141.592 71.9649 152.765 71.9649 159.593 78.7929C163.018 82.2107 168.714 82.2107 172.124 78.7929C175.322 75.0941 175.322 69.6864 171.904 66.2686H171.745ZM152.947 84.7778C149.529 81.36 143.833 81.36 140.415 84.7778L84.5833 140.898C77.7553 147.734 66.6361 147.734 59.7853 140.898C52.9497 134.07 52.9497 122.951 59.7853 116.108L114.766 61.1267C107.931 54.2911 96.8266 54.2911 89.9834 61.1267L47.2534 103.583C33.5822 117.255 33.5822 139.47 47.2534 153.43C60.9322 167.109 83.1402 167.109 97.1076 153.43L152.932 97.5984C156.357 93.892 156.357 88.1956 152.932 84.7778H152.947Z" fill="white"/>
</svg>
