<svg width="256" height="256" viewBox="0 0 256 256" fill="none" xmlns="http://www.w3.org/2000/svg">
<g clip-path="url(#clip0_3151_262)">
<rect width="256" height="256" fill="#635BFF"/>
<path d="M128 256C198.692 256 256 198.692 256 128C256 57.3075 198.692 0 128 0C57.3075 0 0 57.3075 0 128C0 198.692 57.3075 256 128 256Z" fill="#635BFF"/>
<path d="M195.418 128.938C195.418 119.35 190.773 111.783 181.898 111.783C173.023 111.783 167.59 119.348 167.59 128.863C167.59 140.135 173.958 145.83 183.09 145.83C187.548 145.83 190.918 144.83 193.465 143.395V135.895C190.918 137.168 187.998 137.955 184.29 137.955C180.658 137.955 177.435 136.683 177.025 132.263H195.34C195.343 131.783 195.418 129.835 195.418 128.938ZM176.918 125.38C176.918 121.148 179.503 119.38 181.863 119.38C184.148 119.38 186.583 121.13 186.583 125.38H176.918ZM153.133 111.783C150.4 111.772 147.77 112.82 145.793 114.705L145.305 112.383H137.055V156.053L146.418 154.068L146.455 143.468C147.803 144.443 149.788 145.828 153.085 145.828C159.79 145.828 165.895 140.435 165.895 128.563C165.865 117.7 159.685 111.783 153.133 111.783ZM150.883 137.588C148.673 137.588 147.363 136.8 146.463 135.838L146.425 121.943C147.4 120.858 148.748 120.108 150.883 120.108C154.29 120.108 156.65 123.928 156.65 128.835C156.653 133.843 154.33 137.588 150.885 137.588H150.883ZM124.18 109.573L133.58 107.55V99.9475L124.18 101.933V109.573ZM124.18 112.42H133.58V145.193H124.18V112.42ZM114.105 115.19L113.5 112.42H105.415V145.19H114.778V122.98C116.988 120.095 120.733 120.62 121.893 121.033V112.42C120.698 111.97 116.315 111.145 114.105 115.19ZM95.3776 104.293L86.2501 106.25L86.2126 136.25C86.2126 141.793 90.3701 145.875 95.9126 145.875C98.9826 145.875 101.23 145.313 102.468 144.64V137.028C101.27 137.515 95.3526 139.238 95.3526 133.695V120.398H102.468V112.42H95.3401L95.3776 104.293ZM70.0601 121.933C70.0601 120.473 71.2576 119.91 73.2426 119.91C76.4825 119.978 79.6621 120.799 82.5301 122.308V113.5C79.5759 112.336 76.4251 111.753 73.2501 111.783C65.6476 111.783 60.5901 115.753 60.5901 122.383C60.5901 132.72 74.8226 131.073 74.8226 135.528C74.8226 137.25 73.3226 137.813 71.2276 137.813C68.1201 137.813 64.1476 136.54 61.0026 134.813V143.728C64.2311 145.125 67.7098 145.851 71.2276 145.863C79.0176 145.863 84.3726 142.005 84.3726 135.3C84.3301 124.143 70.0601 126.128 70.0601 121.933Z" fill="white"/>
</g>
<defs>
<clipPath id="clip0_3151_262">
<rect width="256" height="256" fill="white"/>
</clipPath>
</defs>
</svg>
