<svg width="256" height="256" viewBox="0 0 256 256" fill="none" xmlns="http://www.w3.org/2000/svg">
<rect width="256" height="256" fill="#021C42"/>
<g clip-path="url(#clip0_3171_89)">
<path fill-rule="evenodd" clip-rule="evenodd" d="M199.171 85.2324H197.793C196.057 85.238 194.339 85.5856 192.737 86.2555C191.136 86.9254 189.682 87.9044 188.458 89.1366C187.235 90.3688 186.267 91.8299 185.609 93.4365C184.95 95.0432 184.615 96.7637 184.623 98.4999V128.177C184.623 134.097 179.765 138.901 173.989 138.901C172.242 138.885 170.524 138.454 168.977 137.642C167.431 136.829 166.1 135.66 165.096 134.23L135.057 90.9478C133.836 89.1765 132.202 87.7286 130.297 86.7288C128.392 85.7289 126.273 85.2071 124.121 85.2083C117.27 85.2083 111.108 91.0808 111.108 98.3368V128.183C111.108 134.103 106.292 138.907 100.474 138.907C97.0304 138.907 93.6108 137.161 91.5808 134.236L57.965 85.8003C57.2038 84.7128 55.5 85.2505 55.5 86.5858V112.468C55.5 113.773 55.8987 115.042 56.6358 116.117L89.714 163.78C91.6715 166.596 94.5473 168.686 97.8763 169.447C106.196 171.356 113.856 164.892 113.856 156.657V126.835C113.856 120.915 118.611 116.111 124.49 116.111H124.502C128.042 116.111 131.359 117.851 133.395 120.782L163.434 164.058C164.638 165.847 166.267 167.309 168.176 168.311C170.085 169.313 172.214 169.824 174.37 169.798C181.366 169.798 187.365 163.919 187.365 156.669V126.829C187.365 120.908 192.12 116.105 197.999 116.105H199.171C199.908 116.105 200.5 115.501 200.5 114.764V86.5676C200.501 86.3923 200.467 86.2185 200.401 86.0562C200.334 85.8939 200.237 85.7463 200.113 85.6217C199.99 85.4972 199.843 85.3982 199.681 85.3303C199.52 85.2625 199.346 85.2272 199.171 85.2264V85.2324Z" fill="#33E8BB"/>
</g>
<defs>
<clipPath id="clip0_3171_89">
<rect width="145" height="145" fill="white" transform="translate(55.5 55)"/>
</clipPath>
</defs>
</svg>
