<svg width="256" height="256" viewBox="0 0 256 256" fill="none" xmlns="http://www.w3.org/2000/svg">
<g clip-path="url(#clip0_3151_185)">
<rect width="256" height="256" fill="black"/>
<path d="M128 256C198.692 256 256 198.692 256 128C256 57.3075 198.692 0 128 0C57.3075 0 0 57.3075 0 128C0 198.692 57.3075 256 128 256Z" fill="black"/>
<path d="M141.627 91.4442C144.599 89.8817 149.935 90.0341 149.935 90.0341C149.935 95.2172 149.439 98.3042 146.162 100.705C145.133 101.467 143.304 102.649 141.207 103.411C138.311 104.478 136.329 106.346 136.329 106.346C136.329 96.8941 137.778 93.4641 141.627 91.4442ZM118.722 93.6547C115.559 96.4368 114.644 100.858 114.644 100.858L104.202 141.293L95.5126 108.175C94.6741 104.669 93.1497 100.286 90.7487 97.3514C87.6617 93.6166 81.4115 93.3498 80.7637 93.3498C80.1158 93.3498 73.8656 93.5784 70.7786 97.3514C68.3776 100.286 66.8532 104.631 66.0148 108.175L57.2874 141.293L46.845 100.858C46.845 100.858 45.9303 96.4368 42.7671 93.6547C37.6603 89.1576 30 90.1104 30 90.1104L49.9701 165.684C49.9701 165.684 56.5633 166.142 59.8789 164.465C64.2235 162.254 66.2815 160.539 68.9112 150.249C71.2359 141.065 77.791 114.158 78.4008 112.215C78.7057 111.262 79.0868 109.013 80.7637 109.013C82.4787 109.013 82.8216 111.262 83.1265 112.215C83.7363 114.12 90.2914 141.065 92.6161 150.249C95.2458 160.539 97.3038 162.254 101.648 164.465C104.964 166.142 111.557 165.684 111.557 165.684L131.565 90.0722C131.489 90.1104 123.829 89.1195 118.722 93.6547ZM149.935 102.458C149.935 102.458 148.677 104.402 145.819 106.003C143.99 107.032 142.236 107.718 140.331 108.632C137.168 110.157 136.329 111.834 136.329 114.425V165.684C136.329 165.684 141.36 166.332 144.676 164.655C148.906 162.483 149.897 160.387 149.935 151.011V102.458ZM199.784 128.069L225.166 90.339C225.166 90.339 214.457 88.5097 209.159 93.3498C205.767 96.4368 201.956 102.001 201.956 102.001L192.619 115.454C192.162 116.14 191.59 116.902 190.637 116.902C189.684 116.902 189.113 116.14 188.655 115.454L179.318 102.001C179.318 102.001 175.507 96.4368 172.115 93.3498C166.818 88.5097 156.109 90.339 156.109 90.339L181.491 128.069L156.147 165.684C156.147 165.684 167.313 167.094 172.611 162.254C176.003 159.167 179.28 154.137 179.28 154.137L188.617 140.683C189.075 139.997 189.646 139.235 190.599 139.235C191.552 139.235 192.124 139.997 192.581 140.683L201.918 154.137C201.918 154.137 205.386 159.167 208.778 162.254C214.075 167.094 225.051 165.684 225.051 165.684L199.784 128.069Z" fill="white"/>
</g>
<defs>
<clipPath id="clip0_3151_185">
<rect width="256" height="256" fill="white"/>
</clipPath>
</defs>
</svg>
