<svg width="256" height="256" viewBox="0 0 256 256" fill="none" xmlns="http://www.w3.org/2000/svg">
<rect width="256" height="256" fill="#9B5C8F"/>
<path d="M40.8789 64H215.228C226.262 64 235.194 72.9317 235.194 83.9661V150.518C235.194 161.552 226.262 170.484 215.228 170.484H152.704L161.286 191.5L123.544 170.484H40.9659C29.9324 170.484 21.0006 161.552 21.0006 150.518V83.9661C20.9128 73.0196 29.8437 64 40.8789 64Z" fill="white"/>
<path d="M33.1973 82.1981C34.4163 80.5431 36.2445 79.673 38.6826 79.4989C43.1238 79.15 45.649 81.2393 46.2581 85.7675C48.9573 103.966 51.9175 119.378 55.0518 132.002L74.1201 95.694C75.8621 92.3849 78.0392 90.6437 80.6513 90.4697C84.4826 90.2086 86.8329 92.6459 87.7909 97.7833C89.968 109.363 92.7542 119.203 96.0625 127.561C98.3266 105.446 102.158 89.5117 107.556 79.673C108.861 77.2348 110.777 76.0158 113.303 75.8409C115.306 75.6677 117.134 76.2768 118.788 77.5829C120.442 78.889 121.313 80.5431 121.487 82.5462C121.574 84.1133 121.313 85.4194 120.617 86.7255C117.221 92.9948 114.434 103.531 112.171 118.158C109.994 132.351 109.21 143.409 109.732 151.333C109.907 153.508 109.558 155.424 108.688 157.079C107.642 158.994 106.076 160.039 104.073 160.213C101.809 160.387 99.4586 159.343 97.1945 156.992C89.097 148.72 82.6536 136.356 77.9522 119.9C72.2919 131.044 68.1126 139.403 65.4134 144.975C60.2761 154.815 55.9228 159.865 52.2656 160.126C49.9145 160.3 47.9122 158.297 46.1711 154.119C41.7307 142.712 36.9415 120.683 31.805 88.0316C31.4561 85.7675 31.9782 83.7644 33.1973 82.1981ZM220.313 95.8681C217.178 90.3827 212.563 87.0744 206.382 85.7675C204.727 85.4194 203.16 85.2454 201.679 85.2454C193.321 85.2454 186.529 89.5987 181.218 98.3062C176.69 105.707 174.427 113.891 174.427 122.86C174.427 129.564 175.82 135.311 178.606 140.1C181.74 145.585 186.355 148.894 192.537 150.2C194.191 150.549 195.758 150.723 197.239 150.723C205.685 150.723 212.476 146.369 217.701 137.662C222.228 130.173 224.492 121.989 224.492 113.021C224.579 106.23 223.099 100.569 220.313 95.8681ZM209.342 119.987C208.123 125.733 205.946 129.999 202.724 132.873C200.199 135.137 197.848 136.094 195.672 135.659C193.582 135.224 191.84 133.396 190.535 129.999C189.489 127.3 188.968 124.601 188.968 122.076C188.968 119.9 189.142 117.723 189.577 115.72C190.361 112.15 191.841 108.667 194.191 105.359C197.065 101.092 200.112 99.3512 203.247 99.9603C205.337 100.395 207.079 102.224 208.384 105.62C209.429 108.319 209.951 111.018 209.951 113.543C209.951 115.807 209.777 117.984 209.342 119.987ZM165.806 95.8681C162.672 90.3827 157.97 87.0744 151.875 85.7675C150.221 85.4194 148.654 85.2454 147.173 85.2454C138.814 85.2454 132.023 89.5987 126.711 98.3062C122.184 105.707 119.92 113.891 119.92 122.86C119.92 129.564 121.313 135.311 124.099 140.1C127.234 145.585 131.849 148.894 138.03 150.2C139.685 150.549 141.252 150.723 142.733 150.723C151.178 150.723 157.97 146.369 163.194 137.662C167.722 130.173 169.985 121.989 169.985 113.021C169.985 106.23 168.592 100.569 165.806 95.8681ZM154.748 119.987C153.529 125.733 151.352 129.999 148.131 132.873C145.606 135.137 143.255 136.094 141.078 135.659C138.988 135.224 137.247 133.396 135.94 129.999C134.896 127.3 134.374 124.601 134.374 122.076C134.374 119.9 134.548 117.723 134.983 115.72C135.767 112.15 137.247 108.667 139.598 105.359C142.471 101.092 145.519 99.3512 148.653 99.9603C150.743 100.395 152.485 102.224 153.79 105.62C154.836 108.319 155.357 111.018 155.357 113.543C155.445 115.807 155.183 117.984 154.748 119.987Z" fill="#9B5C8F"/>
</svg>
