<svg width="256" height="256" viewBox="0 0 256 256" fill="none" xmlns="http://www.w3.org/2000/svg">
<rect width="256" height="256" fill="#00749C"/>
<path fill-rule="evenodd" clip-rule="evenodd" d="M151.586 200.809L131.928 148.328L109.419 200.967C100.903 200.753 95.9653 195.619 95.9653 195.619L62.4159 90.2853C62.4159 90.2853 61.093 85.0587 53.6023 85.0587H49L52.0559 77.1209H94.9311V85.0587C94.9311 85.0587 90.6734 88.4872 91.6702 93.2387C92.6764 97.9901 109.838 166.43 109.838 166.43L126.384 129.806L118.707 105.583C115.763 98.1392 113.341 90.9654 111.412 89.0648C108.692 86.1114 103.735 85.0587 103.735 85.0587V77.1209H156.561V85.0587H147.822C147.822 85.0587 143.219 85.9809 142.819 92.7449C142.735 94.1051 143.527 98.838 143.527 98.838L164.023 166.225C164.023 166.225 185.079 127.561 185.377 119.139C185.685 110.735 182.424 96.9746 173.228 91.4778C158.517 82.6177 162.235 64.9905 173.573 58.7577C178.418 56.1025 182.731 56 187.641 56C204.951 56 206.899 75.6209 206.899 75.6209C208.045 82.3848 207.234 93.8908 203.973 104.037C195.458 130.421 174.383 177.89 166.222 195.964C159.663 202.476 151.586 200.809 151.586 200.809" fill="white"/>
</svg>
