<svg width="256" height="256" viewBox="0 0 256 256" fill="none" xmlns="http://www.w3.org/2000/svg">
<rect width="256" height="256" fill="#1249DC"/>
<g clip-path="url(#clip0_3171_38)">
<path fill-rule="evenodd" clip-rule="evenodd" d="M69.0938 64.0625C66.5912 64.0625 64.5625 66.0912 64.5625 68.5938V168.281H55.5V68.5938C55.5 61.0861 61.5861 55 69.0938 55H190.499C196.554 55 199.587 62.3212 195.305 66.603L120.531 141.377H141.594V132.031H150.656V143.643C150.656 147.396 147.613 150.439 143.859 150.439H111.469L95.8925 166.016H166.516V109.375H175.578V166.016C175.578 171.021 171.521 175.078 166.516 175.078H86.83L70.9707 190.938H186.906C189.409 190.938 191.438 188.909 191.438 186.406V86.7188H200.5V186.406C200.5 193.914 194.414 200 186.906 200H65.501C59.4456 200 56.4131 192.679 60.6948 188.397L135.186 113.906H114.406V122.969H105.344V111.641C105.344 107.887 108.387 104.844 112.141 104.844H144.248L160.108 88.9845H89.4845V145.625H80.422V88.9845C80.422 83.9792 84.4792 79.922 89.4845 79.922H169.17L185.029 64.0625H69.0938Z" fill="white"/>
</g>
<defs>
<clipPath id="clip0_3171_38">
<rect width="145" height="145" fill="white" transform="translate(55.5 55)"/>
</clipPath>
</defs>
</svg>
